<?xml version="1.0" encoding="iso-8859-1"?>
<!-- Generator: Adobe Illustrator 21.0.0, SVG Export Plug-In . SVG Version: 6.00 Build 0)  -->
<svg xmlns="http://www.w3.org/2000/svg" xmlns:xlink="http://www.w3.org/1999/xlink" version="1.1" id="Capa_1" x="0px" y="0px" viewBox="0 0 512 512" style="enable-background:new 0 0 512 512;" xml:space="preserve" width="512" height="512">
<g>
	<path d="M330.554,286.177v-0.191h19.183c1.998,0,3.809-0.786,5.153-2.06c28.843,8.389,59.422-8.597,59.422-32.938   c0-23.37-28.452-40.458-57.074-33.552v-22.85c0-4.142-3.357-7.5-7.5-7.5s-7.5,3.358-7.5,7.5v76.4h-11.683V128.933h11.683v30.653   c0,4.142,3.357,7.5,7.5,7.5s7.5-3.358,7.5-7.5v-38.153c0-4.142-3.357-7.5-7.5-7.5h-19.183v-0.191c0-4.142-3.357-7.5-7.5-7.5   s-7.5,3.358-7.5,7.5v0.191h-11.721c-0.387-6.649-5.903-11.945-12.648-11.945H20.279C9.097,101.988,0,111.085,0,122.268v155.384   c0,11.182,9.097,20.279,20.279,20.279h49.292c4.142,0,7.5-3.358,7.5-7.5s-3.358-7.5-7.5-7.5H20.279   c-2.911,0-5.279-2.368-5.279-5.279V122.268c0-2.911,2.368-5.279,5.279-5.279h47.078v92.695c0,4.142,3.358,7.5,7.5,7.5h155.237   c4.142,0,7.5-3.358,7.5-7.5v-25.969c0-4.142-3.358-7.5-7.5-7.5s-7.5,3.358-7.5,7.5v18.469h-30.868v-85.195h30.868v31.726   c0,4.142,3.358,7.5,7.5,7.5s7.5-3.358,7.5-7.5v-31.726h51.275v165.943H104.571c-4.142,0-7.5,3.358-7.5,7.5s3.358,7.5,7.5,7.5   h186.613c6.745,0,12.261-5.296,12.648-11.945h11.721v0.191c0,4.142,3.357,7.5,7.5,7.5S330.554,290.319,330.554,286.177z    M399.311,250.988c0,14.071-22.17,24.922-42.074,17.945v-35.89C377.341,225.997,399.311,237.038,399.311,250.988z M176.727,202.184   h-94.37v-85.195h22.552v60.678c0,4.142,3.358,7.5,7.5,7.5s7.5-3.358,7.5-7.5v-60.678h19.565v60.678c0,4.142,3.358,7.5,7.5,7.5   s7.5-3.358,7.5-7.5v-60.678h22.252V202.184z M303.87,270.986V128.933h11.684v142.053H303.87z"/>
	<path d="M495.148,295.837c0-19.346-19.797-35.085-44.13-35.085s-44.13,15.739-44.13,35.085s19.797,35.085,44.13,35.085   S495.148,315.183,495.148,295.837z M421.889,295.837c0-10.887,13.34-20.085,29.13-20.085s29.13,9.198,29.13,20.085   s-13.34,20.085-29.13,20.085S421.889,306.724,421.889,295.837z"/>
	<path d="M467.87,339.841c-24.334,0-44.131,15.739-44.131,35.085s19.797,35.085,44.131,35.085c24.333,0,44.13-15.739,44.13-35.085   S492.203,339.841,467.87,339.841z M467.87,395.012c-15.791,0-29.131-9.198-29.131-20.085s13.34-20.085,29.131-20.085   c15.79,0,29.13,9.198,29.13,20.085S483.66,395.012,467.87,395.012z"/>
	<path d="M367.684,310.387c-24.333,0-44.13,15.739-44.13,35.085s19.797,35.085,44.13,35.085s44.13-15.739,44.13-35.085   S392.017,310.387,367.684,310.387z M367.684,365.558c-15.79,0-29.13-9.198-29.13-20.085s13.34-20.085,29.13-20.085   s29.13,9.198,29.13,20.085S383.474,365.558,367.684,365.558z"/>
</g>















</svg>
