<svg id="Capa_1" enable-background="new 0 0 512 512" height="512" viewBox="0 0 512 512" width="512" xmlns="http://www.w3.org/2000/svg"><g><path d="m23.519 305.321c4.595 6.893 13.908 8.755 20.801 4.16l30-20c6.893-4.595 8.755-13.908 4.16-20.801-4.595-6.893-13.908-8.755-20.801-4.16l-30 20c-6.892 4.595-8.755 13.908-4.16 20.801z"/><path d="m27.68 219.481 30 20c6.893 4.595 16.206 2.733 20.801-4.16 4.595-6.893 2.733-16.206-4.16-20.801l-30-20c-6.893-4.595-16.206-2.733-20.801 4.16-4.596 6.892-2.733 16.205 4.16 20.801z"/><path d="m107.79 198.547 56.382 20.521c10.38 3.778 21.856-1.574 25.634-11.953l58.144-159.748c3.778-10.38-1.574-21.856-11.953-25.634l-56.382-20.521c-10.38-3.778-21.856 1.574-25.634 11.953l-58.144 159.748c-3.778 10.379 1.574 21.856 11.953 25.634z"/><path d="m471.731 251.197c15.569 5.667 32.785-2.361 38.451-17.93 5.667-15.569-2.361-32.785-17.93-38.451l-234.923-85.505-20.521 56.382z"/><path d="m450.739 363.261c-6.472-34.816-37.076-61.261-73.739-61.261h-26.507c-6.97-34.19-37.274-60-73.493-60h-42c-36.219 0-66.524 25.81-73.493 60h-26.507c-36.663 0-67.266 26.445-73.739 61.261-34.816 6.472-61.261 37.076-61.261 73.739 0 41.355 33.645 75 75 75h70.786c-15.98-17.006-25.786-39.878-25.786-65 0-8.284 6.716-15 15-15s15 6.716 15 15c0 35.841 29.159 65 65 65h222c41.355 0 75-33.645 75-75 0-36.663-26.445-67.267-61.261-73.739z"/></g></svg>