<svg id="Layer_3" height="512" viewBox="0 0 64 64" width="512" xmlns="http://www.w3.org/2000/svg" data-name="Layer 3"><path d="m49 1h-34a5.006 5.006 0 0 0 -5 5v52a5.006 5.006 0 0 0 5 5h34a5.006 5.006 0 0 0 5-5v-52a5.006 5.006 0 0 0 -5-5zm3 57a3 3 0 0 1 -3 3h-34a3 3 0 0 1 -3-3v-52a3 3 0 0 1 3-3h34a3 3 0 0 1 3 3z"/><path d="m47 7h-30a4 4 0 0 0 -4 4v45a4 4 0 0 0 4 4h30a4 4 0 0 0 4-4v-45a4 4 0 0 0 -4-4zm-12.618 26h-4.764l-1.208-2.416h.009a11.377 11.377 0 0 1 7.162 0h.009zm-6.275 1.45a1 1 0 0 0 .893.55h6a1 1 0 0 0 .893-.55 6.026 6.026 0 0 1 2 3.5 2.585 2.585 0 0 1 -2-1.4 1.042 1.042 0 0 0 -1.79 0 2.6 2.6 0 0 1 -2.339 1.45h-5.664a6.024 6.024 0 0 1 2.007-3.55zm-2.107 5.55h5.764a4.6 4.6 0 0 0 3.236-1.319 4.585 4.585 0 0 0 3 1.3v1.019a6 6 0 0 1 -12 0zm9.1 14.447.277.553h-1.759l1.889-3.777 1.061.354-1.368 1.823a1 1 0 0 0 -.1 1.047zm-3.1-5.447a7.953 7.953 0 0 0 2-.263v1.028l-2 4-2-4v-1.028a7.953 7.953 0 0 0 2 .263zm-3.507 2.223 1.889 3.777h-1.764l.277-.553a1 1 0 0 0 -.095-1.047l-1.368-1.823zm-3.06 1.02 1.4 1.862-.724 1.448a1 1 0 0 0 .891 1.447h10a1 1 0 0 0 .9-1.447l-.724-1.448 1.4-1.862 2.262.757a3.16 3.16 0 0 1 2.162 3v2h-2v-2h-2v2h-14v-2h-2v2h-2v-2a3.16 3.16 0 0 1 2.162-3zm23.567 3.757a2 2 0 0 1 -2 2h-2v-2a5.152 5.152 0 0 0 -3.53-4.9l-5.47-1.819v-1.363a8 8 0 0 0 4-6.918v-2h-1 1a8.031 8.031 0 0 0 -3.189-6.382l1.089-2.171a1 1 0 0 0 -.579-1.4l-1.1-.367a13.379 13.379 0 0 0 -8.428 0l-1.1.367a1 1 0 0 0 -.579 1.4l1.084 2.168a8.033 8.033 0 0 0 -3.198 6.385v2a8 8 0 0 0 4 6.918v1.363l-5.47 1.819a5.152 5.152 0 0 0 -3.53 4.9v2h-2a2 2 0 0 1 -2-2v-45a2 2 0 0 1 2-2h30a2 2 0 0 1 2 2z"/><path d="m46 11h-12a1 1 0 0 0 -1 1v15a1 1 0 0 0 1 1h12a1 1 0 0 0 1-1v-15a1 1 0 0 0 -1-1zm-6 8a1 1 0 1 1 1-1 1 1 0 0 1 -1 1zm-.556 1.944a2.788 2.788 0 0 0 1.112 0 13.448 13.448 0 0 1 1.403 5.056h-3.918a13.448 13.448 0 0 1 1.403-5.056zm5.556 5.056h-1.033a15.466 15.466 0 0 0 -1.688-6.072 3 3 0 1 0 -4.558 0 15.466 15.466 0 0 0 -1.688 6.072h-1.033v-13h10z"/><path d="m27 4h4v2h-4z"/><path d="m33 4h2v2h-2z"/><path d="m22 11h-2v3h-3v2h3v3h2v-3h3v-2h-3z"/></svg>