<?xml version="1.0" standalone="no"?>
<!DOCTYPE svg PUBLIC "-//W3C//DTD SVG 20010904//EN"
 "http://www.w3.org/TR/2001/REC-SVG-20010904/DTD/svg10.dtd">
<svg version="1.0" xmlns="http://www.w3.org/2000/svg"
 width="505.000000pt" height="272.000000pt" viewBox="0 0 505.000000 272.000000"
 preserveAspectRatio="xMidYMid meet">

<g transform="translate(0.000000,272.000000) scale(0.100000,-0.100000)"
fill="#000000" stroke="none">
<path d="M2490 2370 c0 -5 9 -10 21 -10 11 0 17 5 14 10 -3 6 -13 10 -21 10
-8 0 -14 -4 -14 -10z"/>
<path d="M2280 2360 c-8 -5 -11 -12 -8 -15 9 -9 68 5 68 16 0 12 -41 11 -60
-1z"/>
<path d="M2665 2332 c6 -5 21 -13 34 -17 17 -5 22 -4 19 6 -3 8 -18 15 -34 17
-19 2 -25 0 -19 -6z"/>
<path d="M2100 2290 c0 -5 4 -10 9 -10 6 0 13 5 16 10 3 6 -1 10 -9 10 -9 0
-16 -4 -16 -10z"/>
<path d="M1409 2267 c-32 -24 -80 -151 -110 -289 -15 -70 -29 -75 -29 -10 0
56 -25 206 -41 244 -12 29 -31 40 -54 32 -22 -9 -24 -26 -27 -228 -2 -173 -3
-187 -17 -168 -9 11 -29 36 -44 56 -15 20 -41 43 -57 51 -26 13 -30 13 -44 0
-8 -9 -13 -21 -11 -28 42 -126 143 -392 173 -457 50 -107 61 -190 38 -301 -25
-119 -51 -177 -175 -387 -18 -31 -65 -111 -104 -177 -38 -66 -81 -134 -93
-151 -13 -17 -24 -37 -24 -44 0 -28 79 91 212 320 33 58 78 135 99 171 22 36
53 103 71 150 30 79 32 92 33 219 0 133 0 136 -34 205 -44 91 -180 458 -174
468 6 10 51 -18 76 -47 9 -12 37 -63 62 -113 42 -89 65 -115 65 -74 0 10 -7
38 -15 61 -11 32 -15 90 -15 235 0 189 3 225 21 225 27 0 47 -100 57 -297 4
-72 11 -135 15 -140 12 -11 25 16 37 77 34 180 82 334 113 368 23 25 52 29 60
9 8 -21 -9 -94 -39 -172 -58 -151 -94 -345 -64 -345 5 0 22 17 37 37 58 78
129 143 156 143 14 0 76 -26 139 -57 99 -51 113 -61 113 -83 0 -34 -35 -37
-122 -10 -116 36 -134 31 -193 -59 -82 -123 -47 -191 62 -122 25 16 63 45 85
64 39 34 128 75 140 64 13 -13 -20 -92 -54 -132 -32 -37 -149 -263 -178 -346
-15 -41 -71 -131 -126 -205 -47 -61 -63 -107 -83 -239 -8 -55 -24 -160 -36
-233 -21 -142 -27 -282 -10 -282 6 0 10 35 10 84 0 46 9 137 19 202 11 66 25
160 32 209 17 133 38 190 107 285 68 94 74 105 162 300 97 214 153 283 89 110
-67 -182 -78 -223 -98 -347 -50 -320 -50 -473 0 -473 11 0 23 8 26 18 4 9 11
20 17 24 5 3 -7 10 -27 13 l-37 7 0 57 c1 186 49 460 110 627 27 73 54 151 60
174 6 22 15 40 20 40 4 0 22 14 39 31 34 34 40 73 14 88 -14 8 -15 12 -4 25
17 21 34 20 54 -1 8 -10 41 -31 72 -48 54 -29 56 -31 49 -60 -4 -16 -9 -84
-10 -150 -1 -99 -5 -128 -22 -165 -47 -99 -20 -194 65 -232 60 -26 104 -21
215 27 l87 37 101 -11 c278 -30 450 -1 505 87 11 17 25 31 30 32 6 0 16 26 22
58 22 107 70 276 79 279 5 2 23 -9 40 -25 38 -34 53 -104 29 -128 -8 -9 -15
-27 -15 -42 1 -26 1 -26 15 -8 13 18 15 -5 14 -210 0 -171 3 -247 15 -300 16
-76 60 -214 81 -254 7 -14 11 -37 8 -52 -6 -33 29 -57 53 -37 21 17 17 35 -15
68 -19 19 -38 61 -60 127 -57 180 -62 223 -60 508 l1 261 39 -80 c21 -44 68
-141 104 -215 35 -74 87 -164 114 -200 64 -83 75 -117 106 -335 15 -99 31
-202 36 -229 5 -27 9 -83 9 -124 0 -41 3 -72 7 -69 13 14 2 184 -27 378 -37
249 -51 302 -100 366 -58 78 -109 161 -130 212 -35 87 -141 306 -158 324 -16
18 -64 148 -57 155 9 10 101 -42 155 -87 68 -57 135 -84 151 -60 5 8 8 29 5
47 -7 46 -72 150 -106 167 -25 13 -36 12 -102 -6 -117 -31 -132 -33 -148 -14
-22 26 -3 44 105 98 135 67 159 70 210 20 22 -21 57 -60 78 -86 52 -65 71 -63
62 6 -12 90 -35 179 -72 272 -41 105 -49 187 -20 193 10 2 27 -4 38 -14 23
-21 82 -205 104 -324 28 -156 53 -171 56 -35 1 89 26 285 40 321 10 28 25 31
37 7 5 -10 7 -108 6 -218 -1 -161 -5 -207 -19 -239 -16 -38 -13 -78 5 -60 5 5
29 50 53 100 46 91 110 165 129 146 10 -10 -102 -326 -157 -439 -102 -213 -57
-438 150 -758 18 -27 44 -70 57 -95 48 -91 148 -240 160 -240 6 0 3 10 -5 22
-9 13 -49 77 -88 143 -40 66 -89 147 -109 180 -83 134 -140 244 -166 320 -25
70 -28 95 -29 200 0 119 0 120 38 195 56 111 180 456 172 480 -3 11 -11 20
-17 20 -25 0 -73 -39 -109 -89 l-39 -54 -2 89 c-1 49 -1 134 1 189 3 87 0 103
-16 124 -25 31 -49 23 -68 -21 -16 -39 -45 -201 -46 -261 l-1 -42 -10 35 c-83
294 -104 340 -157 340 -71 0 -69 -40 19 -285 25 -70 53 -205 44 -214 -3 -3
-18 10 -32 29 -15 19 -44 52 -65 73 -56 54 -106 52 -230 -9 -50 -25 -102 -55
-114 -67 l-23 -20 -27 24 c-16 13 -29 25 -31 26 -2 1 4 29 12 63 9 34 16 82
16 107 0 38 -5 50 -34 79 -32 32 -38 34 -97 33 -35 0 -73 -4 -84 -8 -15 -7
-30 -1 -60 23 -186 148 -314 172 -449 84 -30 -19 -43 -41 -78 -125 -49 -116
-45 -113 -177 -113 -150 0 -228 -44 -218 -123 l5 -37 -32 19 c-92 57 -197 101
-242 101 -43 0 -51 -4 -93 -47 -26 -27 -57 -61 -69 -78 l-21 -30 -1 30 c0 47
27 149 70 271 41 113 50 180 28 202 -15 15 -48 15 -69 -1z m1185 -66 c66 -32
166 -104 166 -119 0 -5 -28 -22 -62 -38 -34 -16 -88 -46 -120 -67 l-59 -37
-122 15 c-67 8 -138 15 -159 15 -38 0 -46 7 -30 26 5 5 17 32 27 59 34 93 88
148 173 176 47 15 119 3 186 -30z m348 -121 c48 -14 68 -43 68 -98 0 -45 -18
-131 -29 -145 -4 -4 -27 0 -52 8 -44 15 -44 16 -77 108 -18 50 -35 100 -38
109 -6 16 1 19 76 26 8 1 32 -3 52 -8z m-141 -41 c15 -29 60 -162 56 -166 -2
-2 -39 6 -83 16 -43 11 -109 25 -146 32 -38 7 -68 16 -68 20 0 5 10 15 23 23
39 25 182 95 194 96 7 0 17 -10 24 -21z m-631 -101 c0 -6 -11 -30 -25 -53 -24
-42 -25 -42 -97 -49 -39 -4 -94 -16 -122 -27 -58 -22 -76 -14 -76 35 0 33 26
65 65 81 18 7 129 19 223 23 18 1 32 -3 32 -10z m208 1 c53 -6 99 -13 102 -16
3 -3 -15 -23 -40 -44 l-45 -39 -122 0 c-137 0 -135 -1 -103 68 18 41 21 42 65
42 25 0 89 -5 143 -11z m262 -39 c100 -17 221 -51 225 -64 14 -51 45 -238 40
-246 -3 -5 -17 2 -31 15 -60 55 -316 189 -412 214 -23 7 -42 15 -42 19 0 4 24
24 53 45 37 27 59 36 77 33 14 -3 54 -10 90 -16z m326 -90 c2 0 4 -8 4 -19 0
-22 -40 -121 -49 -121 -8 0 -31 106 -31 143 l0 27 36 -15 c20 -8 38 -15 40
-15z m-866 10 c0 -5 -13 -31 -30 -57 -16 -26 -30 -53 -30 -60 0 -7 -8 -13 -18
-13 -22 0 -132 68 -132 81 0 20 110 54 188 58 12 0 22 -3 22 -9z m260 -5 c0
-8 -4 -15 -8 -15 -5 0 -44 -43 -87 -95 -43 -52 -80 -95 -83 -95 -14 0 -132 64
-132 72 0 12 38 87 62 121 19 27 20 27 134 27 95 0 114 -3 114 -15z m180 -38
c176 -74 360 -192 360 -232 0 -19 -73 -109 -115 -141 -34 -26 -39 -27 -68 -15
-18 7 -79 30 -137 51 -163 58 -362 144 -367 158 -6 13 42 75 126 165 52 55 57
58 91 52 19 -4 69 -21 110 -38z m494 -18 c28 -32 33 -54 16 -64 -7 -4 -8 -24
-4 -51 5 -33 -2 -78 -27 -180 -18 -74 -35 -131 -39 -127 -13 16 -42 140 -47
206 -5 60 -2 77 28 157 18 50 36 90 40 90 4 0 19 -14 33 -31z m-1340 -19 l51
-18 -30 -11 c-16 -7 -59 -36 -95 -65 -36 -29 -75 -58 -87 -65 -33 -17 -63 -14
-63 7 0 28 46 115 79 150 35 37 44 37 145 2z m1662 -17 c32 -35 88 -149 79
-162 -3 -6 -14 -11 -24 -11 -20 0 -92 44 -136 84 -16 15 -47 36 -67 48 l-37
21 26 14 c74 38 127 40 159 6z m-1516 -52 c-12 -23 -39 -45 -46 -39 -3 3 2 23
10 43 13 31 18 35 31 25 10 -8 12 -17 5 -29z m1286 -26 c20 -54 12 -68 -21
-34 -17 18 -22 31 -18 52 8 39 19 34 39 -18z m-1014 -22 c32 -14 58 -30 58
-33 0 -9 -31 -50 -94 -124 -48 -56 -51 -58 -57 -35 -15 52 -8 132 16 207 6 17
11 16 77 -15z m456 -199 c70 -25 131 -49 135 -54 5 -4 -33 -30 -85 -57 -51
-28 -131 -71 -178 -97 -75 -42 -90 -47 -128 -42 -56 7 -123 37 -172 76 -39 31
-100 111 -100 132 0 5 34 52 75 103 l75 93 125 -54 c69 -29 182 -74 253 -100z
m362 29 c5 -21 14 -64 21 -95 8 -37 10 -61 4 -67 -6 -6 -33 1 -73 20 -35 16
-66 29 -70 29 -4 0 -15 7 -25 14 -16 12 -11 19 50 83 38 38 72 66 77 62 4 -4
12 -25 16 -46z m-857 -152 c49 -63 109 -105 191 -131 l51 -17 -35 -16 c-82
-37 -115 -47 -163 -47 -98 0 -154 67 -136 163 7 41 34 107 43 107 1 0 23 -27
49 -59z m752 15 c39 -19 84 -38 99 -42 34 -8 33 -25 -3 -61 -50 -51 -111 -63
-305 -62 -94 1 -184 4 -201 8 l-29 6 27 18 c14 9 28 17 31 17 2 0 44 23 93 51
101 59 182 99 201 99 8 0 47 -15 87 -34z"/>
<path d="M1955 2199 c-4 -6 -5 -13 -2 -16 7 -7 27 6 27 18 0 12 -17 12 -25 -2z"/>
<path d="M2972 2149 c2 -7 10 -15 17 -17 8 -3 12 1 9 9 -2 7 -10 15 -17 17 -8
3 -12 -1 -9 -9z"/>
<path d="M1830 2060 c-7 -13 -7 -20 -1 -20 6 0 15 9 21 20 7 13 7 20 1 20 -6
0 -15 -9 -21 -20z"/>
<path d="M2080 1010 c0 -12 28 -25 36 -17 3 3 -4 10 -15 17 -15 7 -21 7 -21 0z"/>
<path d="M2258 933 c7 -3 16 -2 19 1 4 3 -2 6 -13 5 -11 0 -14 -3 -6 -6z"/>
</g>
</svg>
